<svg width="40" height="29" viewBox="0 0 40 29" fill="none" xmlns="http://www.w3.org/2000/svg">
<path d="M34.1476 28.4219H5.8785C2.65584 28.4219 0.0261536 25.7922 0.0261536 22.5696V6.64963C0.0261536 3.42697 2.65584 0.797287 5.8785 0.797287H34.1605C37.3832 0.797287 40.0129 3.42697 40.0129 6.64963V22.5696C40 25.7922 37.3703 28.4219 34.1476 28.4219ZM5.8785 4.54846C4.71834 4.54846 3.77733 5.48947 3.77733 6.64963V22.5696C3.77733 23.7297 4.71834 24.6707 5.8785 24.6707H34.1605C35.3207 24.6707 36.2617 23.7297 36.2617 22.5696V6.64963C36.2617 5.48947 35.3207 4.54846 34.1605 4.54846H5.8785Z" fill="#2D527C"/>
<path d="M18.4468 15.7118H17.8152V14.5645C17.8152 13.9071 17.1578 13.4817 16.1394 13.4817C15.1211 13.4817 14.4636 13.9071 14.4636 14.5645V15.7118H13.3164L16.5519 9.21489C16.6035 9.08598 16.6679 8.93129 16.6679 8.77661C16.6679 7.9645 15.5851 7.46176 14.9922 7.46176C14.3734 7.46176 13.8707 7.77114 13.5871 8.32543L9.20427 16.9493C9.04958 17.2329 9.0238 17.4778 9.0238 17.6067C9.0238 18.3286 9.50075 18.8184 10.1968 18.8184H14.4636V20.6489C14.4636 21.4094 15.3273 21.7446 16.1394 21.7446C16.9386 21.7446 17.8152 21.3965 17.8152 20.6489V18.8184H18.4468C19.014 18.8184 19.5425 18.0579 19.5425 17.2586C19.5425 16.511 19.1945 15.7118 18.4468 15.7118Z" fill="#2D527C"/>
<path d="M29.8937 15.7118H29.2621V14.5645C29.2621 13.9071 28.6046 13.4817 27.5863 13.4817C26.5679 13.4817 25.9105 13.9071 25.9105 14.5645V15.7118H24.7632L28.0117 9.21489C28.0632 9.08598 28.1277 8.93129 28.1277 8.77661C28.1277 7.9645 27.0449 7.46176 26.4519 7.46176C25.8332 7.46176 25.3304 7.77114 25.0468 8.32543L20.664 16.9493C20.5093 17.2329 20.4836 17.4778 20.4836 17.6067C20.4836 18.3286 20.9605 18.8184 21.6566 18.8184H25.9234V20.6489C25.9234 21.4094 26.7871 21.7446 27.5992 21.7446C28.4113 21.7446 29.275 21.3965 29.275 20.6489V18.8184H29.9066C30.4738 18.8184 31.0023 18.0579 31.0023 17.2586C31.0023 16.511 30.6543 15.7118 29.8937 15.7118Z" fill="#2D527C"/>
</svg>
