<svg width="25" height="205" viewBox="0 0 25 205" fill="none" xmlns="http://www.w3.org/2000/svg">
<g clip-path="url(#clip0_96182:6)">
<path d="M17.1779 11.7844C16.3343 11.7844 15.6441 12.449 15.6441 13.2926C15.6441 14.1362 16.3343 14.8263 17.1523 14.8263C17.9959 14.8263 18.6605 14.1362 18.6605 13.3182C18.6861 12.449 18.0214 11.7844 17.1779 11.7844ZM17.1779 14.0595C16.7433 14.0595 16.411 13.7272 16.411 13.2926C16.411 12.858 16.7433 12.5257 17.1779 12.5257C17.6124 12.5257 17.9447 12.8836 17.9447 13.2926C17.9447 13.7272 17.5869 14.0595 17.1779 14.0595Z" fill="#999999"/>
<path d="M7.7965 9.58598C5.77707 9.56042 4.01327 11.2475 4.06439 13.3948C4.08996 15.3886 5.75151 17.1013 7.84762 17.0757C9.89261 17.0502 11.5542 15.3886 11.5542 13.3436C11.5542 11.2731 9.89261 9.58598 7.7965 9.58598ZM7.84762 15.6187C6.49282 15.6698 5.39364 14.5962 5.39364 13.2925C5.39364 11.9633 6.49282 10.9408 7.71981 10.9663C8.99793 10.9663 10.046 11.9888 10.046 13.2925C10.0715 14.5962 9.04905 15.5676 7.84762 15.6187Z" fill="#999999"/>
<path d="M12.5 0C5.59815 0 0 5.59815 0 12.5C0 19.4018 5.59815 25 12.5 25C19.4018 25 25 19.4018 25 12.5C25 5.59815 19.4018 0 12.5 0ZM19.683 17.3568C18.9161 17.8425 18.0726 18.0726 17.1779 18.0726C16.7945 18.0726 16.411 18.0215 16.0532 17.9192C15.1585 17.6891 14.3916 17.229 13.7525 16.5644C13.6759 16.4877 13.5992 16.3855 13.4969 16.2832C13.1646 16.7945 12.8323 17.2801 12.5 17.7914C12.1677 17.2801 11.8354 16.7945 11.5031 16.3088C11.4775 16.3088 11.4775 16.3343 11.4775 16.3343L11.4519 16.3599C10.6851 17.2801 9.71369 17.817 8.53782 18.0215C7.8732 18.1237 7.23414 18.0981 6.59509 17.9192C5.7004 17.6636 4.93353 17.2035 4.29447 16.4877C3.68098 15.7975 3.3231 15.0051 3.16973 14.0849C3.01636 13.2413 3.19529 12.4233 3.24642 12.2188C3.39979 11.6309 3.62985 11.1196 3.98773 10.6339C4.01329 10.6084 4.01329 10.5317 4.01329 10.5061C3.88548 9.99488 3.62985 9.53475 3.34867 9.07463C3.27198 8.97238 3.19529 8.87013 3.11861 8.74232V8.71676C3.14417 8.71676 3.14417 8.71676 3.16973 8.71676C4.11554 8.71676 5.06134 8.71676 6.00715 8.71676C6.05828 8.71676 6.08384 8.6912 6.13496 8.66564C6.79958 8.23108 7.51533 7.89876 8.25664 7.64314C8.79345 7.4642 9.33026 7.31083 9.89263 7.20858C10.4294 7.10633 10.9662 7.02964 11.5286 7.00408C12.8579 6.90183 13.9315 7.02964 14.6472 7.13189C15.184 7.20858 15.6953 7.33639 16.2065 7.48977C17.1012 7.77095 17.9192 8.15439 18.7116 8.64007C18.7628 8.66564 18.8394 8.6912 18.9161 8.6912C19.8364 8.6912 20.7566 8.6912 21.6769 8.6912C21.7536 8.6912 21.8302 8.6912 21.9069 8.6912C21.9069 8.71676 21.9069 8.71676 21.9069 8.71676C21.8558 8.79345 21.8302 8.84457 21.7791 8.92126C21.4724 9.40694 21.1912 9.89263 21.0378 10.455C21.0122 10.5061 21.0122 10.5572 21.0634 10.6339C21.8814 11.8098 22.137 13.1135 21.8047 14.5194C21.4468 15.7208 20.7566 16.6667 19.683 17.3568Z" fill="#999999"/>
<path d="M7.71982 11.7844C6.90182 11.7844 6.21164 12.4746 6.21164 13.2926C6.21164 14.1362 6.90182 14.8008 7.74538 14.8008C8.56338 14.8008 9.25356 14.1106 9.25356 13.267C9.25356 12.449 8.58894 11.7844 7.71982 11.7844ZM7.74538 14.085C7.31082 14.085 6.95295 13.7527 6.95295 13.2926C6.95295 12.858 7.28526 12.5257 7.71982 12.5257C8.15438 12.5257 8.48669 12.858 8.51225 13.2926C8.53781 13.7272 8.17994 14.0595 7.74538 14.085Z" fill="#999999"/>
<path d="M17.1012 9.61152C15.0562 9.66264 13.4458 11.2986 13.4202 13.3436C13.4202 15.4142 15.1073 17.1268 17.1779 17.1013C19.2484 17.1013 20.9356 15.4397 20.9356 13.3436C20.9356 11.1964 19.1718 9.56039 17.1012 9.61152ZM17.2801 15.6187C15.9253 15.6698 14.8517 14.5962 14.8517 13.2925C14.8517 11.9633 15.9509 10.9408 17.1779 10.9663C18.456 10.9663 19.5041 11.9888 19.5041 13.2925C19.5041 14.5706 18.4816 15.5675 17.2801 15.6187Z" fill="#999999"/>
<path d="M13.9826 9.86723C14.8006 9.10035 15.7975 8.71692 16.9223 8.61467C15.593 8.02674 14.1871 7.77111 12.73 7.74555C11.094 7.71999 9.48361 7.95005 7.97543 8.58911C9.12574 8.6658 10.1227 9.04923 10.9662 9.8161C11.8098 10.583 12.2955 11.5543 12.4744 12.6791C12.6789 11.5799 13.1646 10.6341 13.9826 9.86723Z" fill="#999999"/>
</g>
<g clip-path="url(#clip1_96182:6)">
<path d="M12.5 45C5.59815 45 0 50.5982 0 57.5C0 64.4018 5.59815 70 12.5 70C19.4018 70 25 64.4018 25 57.5C25 50.5982 19.4018 45 12.5 45ZM20.0409 54.1513C20.0409 54.3047 20.0409 54.4581 20.0409 54.5859C20.0409 59.9284 15.9765 65.4499 9.17688 65.4499C7.10633 65.4499 5.08691 64.8619 3.3231 63.7372C3.29754 63.7116 3.27198 63.6605 3.29754 63.635C3.3231 63.5838 3.34867 63.5583 3.39979 63.5838C3.68098 63.6094 3.98773 63.635 4.29447 63.635C5.9049 63.635 7.43864 63.1237 8.74232 62.1779C7.18302 62.0501 5.85378 61.002 5.36809 59.4939C5.36809 59.4683 5.36809 59.4172 5.39366 59.3916C5.41922 59.366 5.44478 59.366 5.47034 59.366C5.9049 59.4427 6.33946 59.4427 6.74846 59.3916C5.13803 58.9059 4.01329 57.3977 4.01329 55.6851V55.6339C4.01329 55.6084 4.03885 55.5828 4.06441 55.5572C4.08998 55.5317 4.11554 55.5317 4.16666 55.5572C4.57566 55.7873 5.03578 55.9407 5.52147 55.9918C4.60122 55.2505 4.06441 54.1513 4.06441 52.9499C4.06441 52.2597 4.24335 51.5951 4.60122 51.0072C4.62678 50.9816 4.65235 50.956 4.67791 50.956C4.70347 50.956 4.72903 50.956 4.7546 50.9816C6.64621 53.2822 9.40694 54.7137 12.3722 54.8926C12.3211 54.637 12.2955 54.3814 12.2955 54.1258C12.2955 51.9785 14.0337 50.2403 16.181 50.2403C17.229 50.2403 18.2515 50.6748 18.9673 51.4161C19.7853 51.2372 20.5777 50.956 21.2934 50.5215C21.319 50.4959 21.3701 50.4959 21.3957 50.5215C21.4212 50.547 21.4468 50.5982 21.4212 50.6237C21.1656 51.3906 20.7055 52.0552 20.0664 52.5409C20.6799 52.4386 21.2679 52.2597 21.8047 52.0041C21.8302 51.9785 21.8814 52.0041 21.9069 52.0296C21.9325 52.0552 21.9325 52.1063 21.9069 52.1319C21.4212 52.9755 20.7822 53.6145 20.0409 54.1513Z" fill="#999999"/>
</g>
<g clip-path="url(#clip2_96182:6)">
<path d="M12.5 90C5.59815 90 0 95.5982 0 102.5C0 109.402 5.59815 115 12.5 115C19.4018 115 25 109.402 25 102.5C25 95.5982 19.4018 90 12.5 90ZM17.2546 96.365H15.5163C14.1615 96.365 13.9059 97.0041 13.9059 97.9499V100.02H17.1268V103.292H13.9059V111.677H10.5572V103.292H7.74539V100.046H10.5572V97.6431C10.5572 94.8568 12.2699 93.3231 14.7495 93.3231H17.2801L17.2546 96.365Z" fill="#999999"/>
</g>
<g clip-path="url(#clip3_96182:6)">
<path d="M12.5 135C5.59815 135 0 140.598 0 147.5C0 154.402 5.59815 160 12.5 160C19.4018 160 25 154.402 25 147.5C25 140.598 19.4018 135 12.5 135ZM18.8394 148.855C19.4274 149.417 20.0409 149.954 20.5521 150.593C20.7822 150.874 21.0122 151.155 21.1656 151.488C21.3957 151.948 21.1912 152.459 20.7822 152.485H18.226C17.5613 152.536 17.0501 152.28 16.59 151.82C16.2321 151.462 15.8998 151.079 15.5675 150.695C15.4397 150.542 15.2863 150.389 15.1073 150.286C14.7495 150.056 14.4427 150.133 14.2638 150.491C14.0593 150.874 14.0082 151.283 13.9826 151.692C13.957 152.306 13.7781 152.459 13.1646 152.485C11.8609 152.536 10.6339 152.357 9.50919 151.692C8.51226 151.104 7.71983 150.312 7.05521 149.392C5.72597 147.602 4.72903 145.634 3.80879 143.615C3.60429 143.154 3.75767 142.924 4.26891 142.899C5.11247 142.873 5.93046 142.873 6.77402 142.899C7.10633 142.899 7.33639 143.103 7.46421 143.41C7.92433 144.509 8.46114 145.583 9.15132 146.554C9.33026 146.81 9.53475 147.065 9.79038 147.27C10.0971 147.474 10.3016 147.398 10.455 147.065C10.5317 146.861 10.5828 146.631 10.6084 146.401C10.6851 145.634 10.6851 144.867 10.5572 144.1C10.4806 143.589 10.2249 143.282 9.73925 143.18C9.48363 143.129 9.53476 143.052 9.637 142.899C9.8415 142.669 10.046 142.515 10.4294 142.515H13.318C13.7781 142.618 13.8804 142.797 13.9315 143.257V146.477C13.9315 146.656 14.0082 147.193 14.3405 147.295C14.5961 147.372 14.775 147.168 14.9284 147.014C15.6186 146.273 16.1043 145.404 16.5644 144.509C16.7689 144.1 16.9223 143.691 17.1012 143.282C17.229 142.975 17.408 142.822 17.7658 142.822H20.5521C20.6288 142.822 20.7055 142.822 20.8078 142.848C21.2679 142.924 21.3957 143.129 21.2679 143.589C21.0378 144.305 20.6033 144.918 20.1687 145.506C19.7086 146.145 19.1973 146.759 18.7372 147.423C18.2771 148.037 18.3026 148.344 18.8394 148.855Z" fill="#999999"/>
</g>
<path d="M10.1074 192.5C10.1074 193.821 11.1786 194.893 12.5 194.893C13.8214 194.893 14.8926 193.821 14.8926 192.5C14.8926 191.179 13.8214 190.107 12.5 190.107C11.1786 190.107 10.1074 191.179 10.1074 192.5Z" fill="#999999"/>
<path d="M6.9046 188.267C7.01962 187.955 7.2031 187.673 7.44152 187.442C7.67307 187.203 7.95498 187.02 8.26683 186.905C8.51974 186.806 8.89969 186.69 9.59949 186.658C10.3565 186.623 10.5835 186.616 12.5 186.616C14.4167 186.616 14.6437 186.623 15.4005 186.657C16.1003 186.69 16.4804 186.806 16.7332 186.905C17.045 187.02 17.3271 187.203 17.5585 187.442C17.7969 187.673 17.9804 187.955 18.0956 188.267C18.1938 188.52 18.3107 188.9 18.3426 189.6C18.3771 190.357 18.3846 190.584 18.3846 192.5C18.3846 194.417 18.3771 194.644 18.3426 195.401C18.3107 196.101 18.1938 196.481 18.0956 196.733C17.9804 197.045 17.7971 197.327 17.5587 197.559C17.3271 197.797 17.0452 197.981 16.7334 198.096C16.4804 198.194 16.1003 198.311 15.4005 198.343C14.6437 198.377 14.4169 198.385 12.5002 198.385C10.5833 198.385 10.3563 198.377 9.59969 198.343C8.89988 198.311 8.51974 198.194 8.26683 198.096C7.64084 197.854 7.14607 197.359 6.9046 196.733C6.80637 196.481 6.68945 196.101 6.65741 195.401C6.62289 194.644 6.61564 194.417 6.61564 192.5C6.61564 190.584 6.62289 190.357 6.65741 189.6C6.68926 188.9 6.80618 188.52 6.9046 188.267ZM12.5 196.186C14.5357 196.186 16.186 194.536 16.186 192.5C16.186 190.464 14.5357 188.814 12.5 188.814C10.4645 188.814 8.81424 190.464 8.81424 192.5C8.81424 194.536 10.4645 196.186 12.5 196.186ZM8.66852 189.53C9.14421 189.53 9.52988 189.144 9.52988 188.669C9.52988 188.193 9.14421 187.807 8.66852 187.807C8.19283 187.807 7.80716 188.193 7.80716 188.669C7.80735 189.144 8.19283 189.53 8.66852 189.53Z" fill="#999999"/>
<path d="M12.5 180C19.4025 180 25 185.597 25 192.5C25 199.403 19.4025 205 12.5 205C5.5975 205 0 199.403 0 192.5C0 185.597 5.5975 180 12.5 180ZM5.36556 195.459C5.40028 196.223 5.52177 196.745 5.69916 197.202C6.07204 198.166 6.83422 198.928 7.79839 199.301C8.25481 199.478 8.77666 199.6 9.54056 199.634C10.306 199.669 10.5505 199.678 12.4998 199.678C14.4493 199.678 14.6936 199.669 15.4593 199.634C16.2231 199.6 16.745 199.478 17.2014 199.301C17.6805 199.121 18.1143 198.838 18.4729 198.473C18.8379 198.114 19.1204 197.681 19.3007 197.202C19.478 196.745 19.5995 196.223 19.6342 195.459C19.6695 194.694 19.6777 194.449 19.6777 192.5C19.6777 190.551 19.6695 190.306 19.6344 189.541C19.5997 188.777 19.4784 188.255 19.301 187.798C19.1208 187.319 18.8381 186.886 18.4729 186.527C18.1145 186.162 17.6805 185.879 17.2016 185.699C16.745 185.522 16.2233 185.4 15.4593 185.366C14.6938 185.331 14.4493 185.322 12.5 185.322C10.5507 185.322 10.3062 185.331 9.54075 185.366C8.77666 185.4 8.255 185.522 7.79839 185.699C7.31945 185.879 6.88553 186.162 6.52695 186.527C6.16188 186.886 5.87921 187.319 5.69916 187.798C5.52158 188.255 5.40028 188.777 5.36537 189.541C5.33047 190.306 5.32227 190.551 5.32227 192.5C5.32227 194.449 5.33047 194.694 5.36556 195.459Z" fill="#999999"/>
<defs>
<clipPath id="clip0_96182:6">
<rect width="25" height="25" fill="white"/>
</clipPath>
<clipPath id="clip1_96182:6">
<rect width="25" height="25" fill="white" transform="translate(0 45)"/>
</clipPath>
<clipPath id="clip2_96182:6">
<rect width="25" height="25" fill="white" transform="translate(0 90)"/>
</clipPath>
<clipPath id="clip3_96182:6">
<rect width="25" height="25" fill="white" transform="translate(0 135)"/>
</clipPath>
</defs>
</svg>
