<svg width="14" height="14" viewBox="0 0 14 14" fill="none" xmlns="http://www.w3.org/2000/svg">
<path d="M13.6962 6.37199C13.9717 6.10343 14.069 5.70928 13.9501 5.34288C13.831 4.97648 13.5207 4.71492 13.1394 4.65942L9.74958 4.16687C9.60521 4.14584 9.48046 4.05529 9.41598 3.92437L7.90048 0.853009C7.73032 0.507914 7.38494 0.293457 7.00004 0.293457C6.61542 0.293457 6.27004 0.507914 6.09988 0.853009L4.5841 3.92465C4.51962 4.05557 4.39459 4.14612 4.25022 4.16715L0.860391 4.6597C0.479414 4.71492 0.168802 4.97676 0.0496586 5.34316C-0.069204 5.70956 0.0280727 6.10371 0.303643 6.37227L2.75631 8.76298C2.86087 8.86502 2.90881 9.01192 2.88414 9.15545L2.30553 12.5313C2.25422 12.8284 2.33216 13.1174 2.52447 13.3454C2.82331 13.7005 3.34501 13.8088 3.76215 13.5895L6.79371 11.9955C6.92042 11.9291 7.07993 11.9297 7.20637 11.9955L10.2382 13.5895C10.3857 13.6672 10.5429 13.7064 10.7052 13.7064C11.0016 13.7064 11.2825 13.5747 11.4756 13.3454C11.6682 13.1174 11.7459 12.8279 11.6946 12.5313L11.1157 9.15545C11.091 9.01164 11.1389 8.86502 11.2435 8.76298L13.6962 6.37199Z" fill="#E9CE93"/>
</svg>
